<svg width="124" height="38" viewBox="0 0 124 38" fill="none" xmlns="http://www.w3.org/2000/svg">
<path d="M12.3047 26.2139H15.3564C15.2588 27.3776 14.9333 28.4152 14.3799 29.3267C13.8265 30.23 13.0493 30.9421 12.0483 31.4629C11.0474 31.9837 9.83073 32.2441 8.39844 32.2441C7.2998 32.2441 6.31104 32.0488 5.43213 31.6582C4.55322 31.2594 3.80046 30.6979 3.17383 29.9736C2.5472 29.2412 2.06706 28.3582 1.7334 27.3247C1.40788 26.2912 1.24512 25.1356 1.24512 23.8579V22.3809C1.24512 21.1032 1.41195 19.9476 1.74561 18.9141C2.0874 17.8805 2.57568 16.9976 3.21045 16.2651C3.84521 15.5246 4.60612 14.959 5.49316 14.5684C6.38835 14.1777 7.39339 13.9824 8.5083 13.9824C9.92432 13.9824 11.1206 14.2428 12.0972 14.7637C13.0737 15.2845 13.8306 16.0047 14.3677 16.9243C14.9129 17.8439 15.2466 18.8978 15.3687 20.0859H12.3169C12.2355 19.321 12.0565 18.6659 11.7798 18.1206C11.5112 17.5754 11.1125 17.1603 10.5835 16.8755C10.0545 16.5825 9.36279 16.436 8.5083 16.436C7.80843 16.436 7.19808 16.5662 6.67725 16.8267C6.15641 17.0871 5.72103 17.4696 5.37109 17.9741C5.02116 18.4787 4.75667 19.1012 4.57764 19.8418C4.40674 20.5742 4.32129 21.4124 4.32129 22.3564V23.8579C4.32129 24.7531 4.3986 25.5669 4.55322 26.2993C4.71598 27.0236 4.96012 27.6462 5.28564 28.167C5.6193 28.6878 6.04248 29.0907 6.55518 29.3755C7.06787 29.6603 7.68229 29.8027 8.39844 29.8027C9.26921 29.8027 9.97314 29.6644 10.5103 29.3877C11.0555 29.111 11.4665 28.7082 11.7432 28.1792C12.028 27.6421 12.2152 26.987 12.3047 26.2139ZM25.293 29.3511V23.0522C25.293 22.5802 25.2075 22.1733 25.0366 21.8315C24.8657 21.4897 24.6053 21.2253 24.2554 21.0381C23.9136 20.8509 23.4823 20.7573 22.9614 20.7573C22.4813 20.7573 22.0662 20.8387 21.7163 21.0015C21.3664 21.1642 21.0938 21.384 20.8984 21.6606C20.7031 21.9373 20.6055 22.2507 20.6055 22.6006H17.6758C17.6758 22.0798 17.8019 21.5752 18.0542 21.0869C18.3065 20.5986 18.6727 20.1632 19.1528 19.7808C19.633 19.3983 20.2067 19.0972 20.874 18.8774C21.5413 18.6577 22.29 18.5479 23.1201 18.5479C24.113 18.5479 24.9919 18.7147 25.7568 19.0483C26.5299 19.382 27.1362 19.8866 27.5757 20.562C28.0233 21.2293 28.2471 22.0675 28.2471 23.0767V28.9482C28.2471 29.5505 28.2878 30.0916 28.3691 30.5718C28.4587 31.0438 28.5848 31.4548 28.7476 31.8047V32H25.7324C25.5941 31.6826 25.4842 31.2798 25.4028 30.7915C25.3296 30.2951 25.293 29.8149 25.293 29.3511ZM25.7202 23.9678L25.7446 25.7866H23.6328C23.0876 25.7866 22.6074 25.8395 22.1924 25.9453C21.7773 26.043 21.4315 26.1895 21.1548 26.3848C20.8781 26.5801 20.6706 26.8161 20.5322 27.0928C20.3939 27.3695 20.3247 27.6828 20.3247 28.0327C20.3247 28.3826 20.4061 28.7041 20.5688 28.9971C20.7316 29.2819 20.9676 29.5057 21.2769 29.6685C21.5942 29.8312 21.9767 29.9126 22.4243 29.9126C23.0265 29.9126 23.5514 29.7905 23.999 29.5464C24.4548 29.2941 24.8128 28.9889 25.0732 28.6309C25.3337 28.2646 25.472 27.9188 25.4883 27.5933L26.4404 28.8994C26.3428 29.2331 26.1759 29.5911 25.9399 29.9736C25.7039 30.3561 25.3947 30.7223 25.0122 31.0723C24.6379 31.4141 24.1862 31.6948 23.6572 31.9146C23.1364 32.1343 22.5342 32.2441 21.8506 32.2441C20.988 32.2441 20.2189 32.0732 19.5435 31.7314C18.868 31.3815 18.339 30.9136 17.9565 30.3276C17.5741 29.7336 17.3828 29.0622 17.3828 28.3135C17.3828 27.6136 17.513 26.9951 17.7734 26.458C18.042 25.9128 18.4326 25.457 18.9453 25.0908C19.4661 24.7246 20.1009 24.4479 20.8496 24.2607C21.5983 24.0654 22.4528 23.9678 23.4131 23.9678H25.7202ZM37.3779 18.792V20.9404H29.9316V18.792H37.3779ZM32.0801 15.5571H35.022V28.3501C35.022 28.757 35.0789 29.0703 35.1929 29.29C35.3149 29.5016 35.4818 29.644 35.6934 29.7173C35.9049 29.7905 36.1532 29.8271 36.438 29.8271C36.6414 29.8271 36.8368 29.8149 37.0239 29.7905C37.2111 29.7661 37.3617 29.7417 37.4756 29.7173L37.4878 31.9634C37.2437 32.0366 36.9588 32.1017 36.6333 32.1587C36.3159 32.2157 35.9497 32.2441 35.5347 32.2441C34.8592 32.2441 34.2611 32.1261 33.7402 31.8901C33.2194 31.646 32.8125 31.2513 32.5195 30.7061C32.2266 30.1608 32.0801 29.4365 32.0801 28.5332V15.5571ZM45.0439 29.9004C45.5241 29.9004 45.9554 29.8068 46.3379 29.6196C46.7285 29.4243 47.0418 29.1558 47.2778 28.814C47.522 28.4722 47.6562 28.0775 47.6807 27.6299H50.4517C50.4354 28.4844 50.1831 29.2616 49.6948 29.9614C49.2065 30.6613 48.5596 31.2188 47.7539 31.6338C46.9482 32.0407 46.0571 32.2441 45.0806 32.2441C44.0715 32.2441 43.1925 32.0732 42.4438 31.7314C41.6951 31.3815 41.0726 30.9014 40.5762 30.291C40.0798 29.6807 39.7054 28.9767 39.4531 28.1792C39.209 27.3817 39.0869 26.5272 39.0869 25.6157V25.1885C39.0869 24.277 39.209 23.4225 39.4531 22.625C39.7054 21.8193 40.0798 21.1113 40.5762 20.501C41.0726 19.8906 41.6951 19.4146 42.4438 19.0728C43.1925 18.7228 44.0674 18.5479 45.0684 18.5479C46.1263 18.5479 47.054 18.7594 47.8516 19.1826C48.6491 19.5977 49.2757 20.1795 49.7314 20.9282C50.1953 21.6688 50.4354 22.5314 50.4517 23.5161H47.6807C47.6562 23.0278 47.5342 22.5884 47.3145 22.1978C47.1029 21.799 46.8018 21.4816 46.4111 21.2456C46.0286 21.0096 45.5688 20.8916 45.0317 20.8916C44.4377 20.8916 43.9453 21.0137 43.5547 21.2578C43.1641 21.4938 42.8589 21.8193 42.6392 22.2344C42.4194 22.6413 42.2607 23.1011 42.1631 23.6138C42.0736 24.1183 42.0288 24.6432 42.0288 25.1885V25.6157C42.0288 26.161 42.0736 26.6899 42.1631 27.2026C42.2526 27.7153 42.4072 28.1751 42.627 28.582C42.8548 28.9808 43.1641 29.3022 43.5547 29.5464C43.9453 29.7824 44.4417 29.9004 45.0439 29.9004ZM55.6152 13.25V32H52.6855V13.25H55.6152ZM55.1025 24.9077L54.1504 24.8955C54.1585 23.984 54.2847 23.1418 54.5288 22.3687C54.7811 21.5955 55.131 20.9242 55.5786 20.3545C56.0343 19.7767 56.5796 19.3332 57.2144 19.0239C57.8491 18.7065 58.5531 18.5479 59.3262 18.5479C59.9772 18.5479 60.5632 18.6374 61.084 18.8164C61.613 18.9954 62.0687 19.2843 62.4512 19.6831C62.8337 20.0737 63.1226 20.5864 63.3179 21.2212C63.5213 21.8478 63.623 22.6128 63.623 23.5161V32H60.6689V23.4917C60.6689 22.8569 60.5754 22.3524 60.3882 21.978C60.2091 21.6037 59.9447 21.3351 59.5947 21.1724C59.2448 21.0015 58.8175 20.916 58.313 20.916C57.784 20.916 57.3161 21.0218 56.9092 21.2334C56.5104 21.445 56.1768 21.7339 55.9082 22.1001C55.6396 22.4663 55.4362 22.8895 55.2979 23.3696C55.1676 23.8498 55.1025 24.3625 55.1025 24.9077ZM68.1396 14.2266H70.874L76.0132 27.9351L81.1401 14.2266H83.8745L77.0874 32H74.9146L68.1396 14.2266ZM66.8945 14.2266H69.4946L69.9463 26.0918V32H66.8945V14.2266ZM82.5195 14.2266H85.1318V32H82.0679V26.0918L82.5195 14.2266ZM94.2993 32.2441C93.3228 32.2441 92.4398 32.0854 91.6504 31.7681C90.8691 31.4425 90.2018 30.9909 89.6484 30.4131C89.1032 29.8353 88.6841 29.1558 88.3911 28.3745C88.0981 27.5933 87.9517 26.751 87.9517 25.8477V25.3594C87.9517 24.3258 88.1022 23.39 88.4033 22.5518C88.7044 21.7135 89.1235 20.9974 89.6606 20.4033C90.1978 19.8011 90.8325 19.3413 91.5649 19.0239C92.2974 18.7065 93.0908 18.5479 93.9453 18.5479C94.8893 18.5479 95.7153 18.7065 96.4233 19.0239C97.1313 19.3413 97.7173 19.7889 98.1812 20.3667C98.6532 20.9364 99.0031 21.6159 99.231 22.4053C99.467 23.1947 99.585 24.0654 99.585 25.0176V26.2749H89.3799V24.1631H96.6797V23.9312C96.6634 23.4022 96.5576 22.9058 96.3623 22.4419C96.1751 21.978 95.8862 21.6037 95.4956 21.3188C95.105 21.034 94.5841 20.8916 93.9331 20.8916C93.4448 20.8916 93.0094 20.9974 92.627 21.209C92.2526 21.4124 91.9393 21.7095 91.687 22.1001C91.4347 22.4907 91.2394 22.9627 91.1011 23.5161C90.9709 24.0614 90.9058 24.6758 90.9058 25.3594V25.8477C90.9058 26.4255 90.9831 26.9626 91.1377 27.459C91.3005 27.9473 91.5365 28.3745 91.8457 28.7407C92.1549 29.1069 92.5293 29.3958 92.9688 29.6074C93.4082 29.8109 93.9087 29.9126 94.4702 29.9126C95.1782 29.9126 95.8089 29.7702 96.3623 29.4854C96.9157 29.2005 97.3958 28.7977 97.8027 28.2769L99.353 29.7783C99.0682 30.1934 98.6979 30.5921 98.2422 30.9746C97.7865 31.349 97.229 31.6541 96.5698 31.8901C95.9188 32.1261 95.1619 32.2441 94.2993 32.2441Z" fill="#34E7FF"/>
<path d="M97.75 26.25V3.75H109V6.25H100.25V23.75H117.75V15H120.25V26.25H97.75ZM106.125 19.625L104.375 17.875L116 6.25H111.5V3.75H120.25V12.5H117.75V8L106.125 19.625Z" fill="#34E7FF"/>
</svg>
