<svg width="14" height="13" viewBox="0 0 14 13" fill="none" xmlns="http://www.w3.org/2000/svg">
<path d="M1.66659 13C1.29992 13 0.986141 12.8696 0.725252 12.6087C0.463919 12.3473 0.333252 12.0333 0.333252 11.6667V4.33334C0.333252 3.96668 0.463919 3.6529 0.725252 3.39201C0.986141 3.13068 1.29992 3.00001 1.66659 3.00001H4.33325V1.66668C4.33325 1.30001 4.46392 0.98601 4.72525 0.724677C4.98614 0.463788 5.29992 0.333344 5.66658 0.333344H8.33325C8.69992 0.333344 9.01392 0.463788 9.27525 0.724677C9.53614 0.98601 9.66658 1.30001 9.66658 1.66668V3.00001H12.3333C12.6999 3.00001 13.0139 3.13068 13.2753 3.39201C13.5361 3.6529 13.6666 3.96668 13.6666 4.33334V11.6667C13.6666 12.0333 13.5361 12.3473 13.2753 12.6087C13.0139 12.8696 12.6999 13 12.3333 13H1.66659ZM1.66659 11.6667H12.3333V4.33334H1.66659V11.6667ZM5.66658 3.00001H8.33325V1.66668H5.66658V3.00001ZM1.66659 11.6667V4.33334V11.6667Z" fill="#616161"/>
</svg>
