<svg width="24" height="26" viewBox="0 0 24 26" fill="none" xmlns="http://www.w3.org/2000/svg">
<path d="M1.25 25.5C0.895833 25.5 0.59875 25.38 0.35875 25.14C0.119584 24.9008 0 24.6042 0 24.25V4.25C0 3.89583 0.119584 3.59875 0.35875 3.35875C0.59875 3.11958 0.895833 3 1.25 3H3.75V0.5H8.75V3H11.25C11.6042 3 11.9013 3.11958 12.1413 3.35875C12.3804 3.59875 12.5 3.89583 12.5 4.25V24.25C12.5 24.6042 12.3804 24.9008 12.1413 25.14C11.9013 25.38 11.6042 25.5 11.25 25.5H1.25ZM18.75 13L17.1875 9.5625L13.75 8L17.1875 6.4375L18.75 3L20.3125 6.4375L23.75 8L20.3125 9.5625L18.75 13Z" fill="#616161"/>
</svg>
