<svg width="26" height="25" viewBox="0 0 26 25" fill="none" xmlns="http://www.w3.org/2000/svg">
<path d="M3 24.25C2.3125 24.25 1.72417 24.0054 1.235 23.5163C0.745 23.0263 0.5 22.4375 0.5 21.75V8C0.5 7.3125 0.745 6.72417 1.235 6.235C1.72417 5.745 2.3125 5.5 3 5.5H8V3C8 2.3125 8.245 1.72375 8.735 1.23375C9.22417 0.744583 9.8125 0.5 10.5 0.5H15.5C16.1875 0.5 16.7763 0.744583 17.2663 1.23375C17.7554 1.72375 18 2.3125 18 3V5.5H23C23.6875 5.5 24.2763 5.745 24.7663 6.235C25.2554 6.72417 25.5 7.3125 25.5 8V21.75C25.5 22.4375 25.2554 23.0263 24.7663 23.5163C24.2763 24.0054 23.6875 24.25 23 24.25H3ZM3 21.75H23V8H3V21.75ZM10.5 5.5H15.5V3H10.5V5.5ZM3 21.75V8V21.75Z" fill="#34E7FF"/>
</svg>
