<svg width="26" height="25" viewBox="0 0 26 25" fill="none" xmlns="http://www.w3.org/2000/svg">
<path d="M19.6625 12L21.2375 10.425C21.7875 9.875 22.4875 9.575 23.25 9.5V8.25L15.75 0.75H3.25C1.8625 0.75 0.75 1.8625 0.75 3.25V20.75C0.75 21.413 1.01339 22.0489 1.48223 22.5178C1.95107 22.9866 2.58696 23.25 3.25 23.25H10.75V20.9125L10.9125 20.75H3.25V3.25H12V12H19.6625ZM14.5 2.625L21.375 9.5H14.5V2.625ZM20.9125 14.2875L23.4625 16.8375L15.8 24.5H13.25V21.95L20.9125 14.2875ZM25.5625 14.7375L24.3375 15.9625L21.7875 13.4125L23.0125 12.1875C23.25 11.9375 23.6625 11.9375 23.9125 12.1875L25.5625 13.8375C25.8125 14.0875 25.8125 14.5 25.5625 14.7375Z" fill="#616161"/>
</svg>
