<svg width="14" height="14" viewBox="0 0 14 14" fill="none" xmlns="http://www.w3.org/2000/svg">
<path d="M6.99992 0.333336C3.31992 0.333336 0.333252 3.32 0.333252 7C0.333252 10.68 3.31992 13.6667 6.99992 13.6667C10.6799 13.6667 13.6666 10.68 13.6666 7C13.6666 3.32 10.6799 0.333336 6.99992 0.333336ZM10.0933 4.86667C9.99325 5.92 9.55992 8.48 9.33992 9.66C9.24658 10.16 9.05992 10.3267 8.88658 10.3467C8.49992 10.38 8.20658 10.0933 7.83325 9.84667C7.24658 9.46 6.91325 9.22 6.34659 8.84667C5.68659 8.41334 6.11325 8.17334 6.49325 7.78667C6.59325 7.68667 8.29992 6.13334 8.33325 5.99334C8.33788 5.97213 8.33727 5.95012 8.33146 5.9292C8.32565 5.90829 8.31482 5.88911 8.29992 5.87334C8.25992 5.84 8.20658 5.85334 8.15992 5.86C8.09992 5.87334 7.16658 6.49334 5.34659 7.72C5.07992 7.9 4.83992 7.99334 4.62658 7.98667C4.38658 7.98 3.93325 7.85334 3.59325 7.74C3.17325 7.60667 2.84659 7.53334 2.87325 7.3C2.88658 7.18 3.05325 7.06 3.36659 6.93334C5.31325 6.08667 6.60659 5.52667 7.25325 5.26C9.10658 4.48667 9.48659 4.35334 9.73992 4.35334C9.79325 4.35334 9.91992 4.36667 9.99992 4.43334C10.0666 4.48667 10.0866 4.56 10.0933 4.61334C10.0866 4.65334 10.0999 4.77334 10.0933 4.86667Z" fill="#616161"/>
</svg>
