<svg width="14" height="14" viewBox="0 0 14 14" fill="none" xmlns="http://www.w3.org/2000/svg">
<path d="M10.9333 10.5933C10.7599 10.06 10.2599 9.66668 9.66658 9.66668H8.99992V7.66668C8.99992 7.48987 8.92968 7.3203 8.80466 7.19527C8.67963 7.07025 8.51006 7.00001 8.33325 7.00001H4.33325V5.66668H5.66658C5.8434 5.66668 6.01297 5.59644 6.13799 5.47141C6.26301 5.34639 6.33325 5.17682 6.33325 5.00001V3.66668H7.66658C8.02021 3.66668 8.35935 3.5262 8.60939 3.27615C8.85944 3.0261 8.99992 2.68697 8.99992 2.33334V2.06001C9.79757 2.38159 10.5054 2.89166 11.0629 3.54657C11.6203 4.20147 12.0108 4.98171 12.2008 5.82048C12.3908 6.65926 12.3748 7.53159 12.154 8.36281C11.9333 9.19403 11.5144 9.95938 10.9333 10.5933ZM6.33325 12.2867C3.69992 11.96 1.66659 9.72001 1.66659 7.00001C1.66659 6.58668 1.71992 6.18668 1.80659 5.80668L4.99992 9.00001V9.66668C4.99992 10.0203 5.14039 10.3594 5.39044 10.6095C5.64049 10.8595 5.97963 11 6.33325 11M6.99992 0.333344C6.12444 0.333344 5.25753 0.505782 4.4487 0.840813C3.63986 1.17584 2.90493 1.66691 2.28587 2.28596C1.03563 3.53621 0.333252 5.2319 0.333252 7.00001C0.333252 8.76812 1.03563 10.4638 2.28587 11.7141C2.90493 12.3331 3.63986 12.8242 4.4487 13.1592C5.25753 13.4942 6.12444 13.6667 6.99992 13.6667C8.76803 13.6667 10.4637 12.9643 11.714 11.7141C12.9642 10.4638 13.6666 8.76812 13.6666 7.00001C13.6666 6.12453 13.4941 5.25762 13.1591 4.44879C12.8241 3.63995 12.333 2.90502 11.714 2.28596C11.0949 1.66691 10.36 1.17584 9.55114 0.840813C8.7423 0.505782 7.8754 0.333344 6.99992 0.333344Z" fill="#616161"/>
</svg>
